<svg width="40" height="36" viewBox="0 0 40 36" fill="none" xmlns="http://www.w3.org/2000/svg">
<path d="M25.6001 3.22574L39.0021 25.5479C40.9281 28.7539 39.9821 32.972 36.8881 34.968C35.8497 35.6404 34.6392 35.9987 33.4021 36H6.59602C2.95401 36 0 32.94 0 29.1619C0 27.8839 0.346001 26.6339 0.996003 25.5479L14.4 3.22574C16.324 0.0197167 20.3921 -0.962291 23.4861 1.03372C24.3421 1.58573 25.0661 2.33574 25.6001 3.22574ZM21.1601 4.90376C20.9152 4.74627 20.641 4.64005 20.3539 4.59151C20.0669 4.54297 19.773 4.55312 19.49 4.62135C19.207 4.68958 18.9407 4.81447 18.7073 4.98848C18.4739 5.16249 18.2782 5.382 18.1321 5.63376L4.73001 27.9599C4.51231 28.3238 4.39755 28.7399 4.39801 29.1639C4.39801 30.424 5.38202 31.444 6.59802 31.444H33.4001C33.8121 31.444 34.2141 31.324 34.5621 31.1C35.0615 30.7682 35.4136 30.2565 35.5451 29.6716C35.6766 29.0867 35.5774 28.4735 35.2681 27.9599L21.8661 5.63376C21.6903 5.3398 21.4495 5.09007 21.1621 4.90376H21.1601ZM20.0001 27.9999C19.4696 27.9999 18.9609 27.7892 18.5858 27.4141C18.2108 27.0391 18.0001 26.5304 18.0001 25.9999C18.0001 25.4695 18.2108 24.9608 18.5858 24.5857C18.9609 24.2106 19.4696 23.9999 20.0001 23.9999C20.5305 23.9999 21.0392 24.2106 21.4143 24.5857C21.7893 24.9608 22.0001 25.4695 22.0001 25.9999C22.0001 26.5304 21.7893 27.0391 21.4143 27.4141C21.0392 27.7892 20.5305 27.9999 20.0001 27.9999ZM20.0001 9.99979C20.5305 9.99979 21.0392 10.2105 21.4143 10.5856C21.7893 10.9607 22.0001 11.4694 22.0001 11.9998V19.9999C22.0001 20.5303 21.7893 21.039 21.4143 21.4141C21.0392 21.7892 20.5305 21.9999 20.0001 21.9999C19.4696 21.9999 18.9609 21.7892 18.5858 21.4141C18.2108 21.039 18.0001 20.5303 18.0001 19.9999V11.9998C18.0001 11.4694 18.2108 10.9607 18.5858 10.5856C18.9609 10.2105 19.4696 9.99979 20.0001 9.99979Z" fill="#61D90C"/>
</svg>
