<svg width="14" height="28" viewBox="0 0 14 28" fill="none" xmlns="http://www.w3.org/2000/svg">
<path d="M7 27.9976C5.1906 28.0503 3.43762 27.2399 2.12542 25.7442C0.813221 24.2485 0.0488855 22.1896 0 20.0188V5.78285C0.0336397 4.21355 0.584086 2.72415 1.53085 1.64066C2.47762 0.557178 3.74359 -0.0321412 5.05167 0.00169939C6.36173 -0.0359008 7.63071 0.551744 8.58001 1.63563C9.52932 2.71952 10.0814 4.21107 10.115 5.78285V20.0328C10.0665 20.9826 9.71779 21.8745 9.14004 22.5265C8.56229 23.1786 7.799 23.5416 7.00583 23.5416C6.21267 23.5416 5.44938 23.1786 4.87163 22.5265C4.29388 21.8745 3.94518 20.9826 3.89667 20.0328V6.88869C3.89667 6.51744 4.01958 6.1614 4.23838 5.89888C4.45717 5.63637 4.75391 5.48889 5.06333 5.48889C5.37275 5.48889 5.6695 5.63637 5.88829 5.89888C6.10708 6.1614 6.23 6.51744 6.23 6.88869V20.0328C6.25327 20.26 6.345 20.4691 6.48791 20.6208C6.63081 20.7725 6.81503 20.8563 7.00583 20.8563C7.19664 20.8563 7.38085 20.7725 7.52376 20.6208C7.66667 20.4691 7.7584 20.26 7.78167 20.0328V5.78285C7.7454 4.95475 7.43839 4.17721 6.92729 3.61901C6.41618 3.06081 5.74222 2.76698 5.05167 2.80129C4.36309 2.77075 3.69212 3.06627 3.18355 3.62408C2.67499 4.1819 2.36961 4.95726 2.33333 5.78285V20.0188C2.3819 21.4472 2.90029 22.7943 3.77497 23.765C4.64965 24.7358 5.80932 25.251 7 25.198C8.19068 25.251 9.35035 24.7358 10.225 23.765C11.0997 22.7943 11.6181 21.4472 11.6667 20.0188V5.78285C11.6667 5.4116 11.7896 5.05556 12.0084 4.79305C12.2272 4.53053 12.5239 4.38306 12.8333 4.38306C13.1428 4.38306 13.4395 4.53053 13.6583 4.79305C13.8771 5.05556 14 5.4116 14 5.78285V20.0188C13.9511 22.1896 13.1868 24.2485 11.8746 25.7442C10.5624 27.2399 8.8094 28.0503 7 27.9976Z" fill="#F2F2F2"/>
</svg>
