<svg width="120" height="120" viewBox="0 0 120 120" fill="none" xmlns="http://www.w3.org/2000/svg">
<path d="M37.4251 59.7618C37.2901 58.4568 37.2151 57.1368 37.2151 55.8019C37.2151 53.417 37.4401 51.092 37.8601 48.8271C37.9651 48.2871 37.6801 47.7321 37.1851 47.5071C35.1452 46.5922 33.2702 45.3322 31.6502 43.7422C29.7413 41.8914 28.2392 39.663 27.2397 37.1992C26.2402 34.7354 25.7653 32.0903 25.8452 29.4327C25.9802 24.6178 27.9152 20.0429 31.2902 16.593C34.9952 12.7981 39.9751 10.7282 45.2701 10.7882C50.0551 10.8332 54.675 12.6781 58.17 15.9481C59.355 17.058 60.375 18.288 61.23 19.6079C61.53 20.0729 62.115 20.2679 62.625 20.0879C65.265 19.173 68.0549 18.528 70.9199 18.228C71.7599 18.138 72.2399 17.238 71.8649 16.488C66.99 6.84332 57.03 0.183514 45.5101 0.00351946C28.8752 -0.251473 15.0153 13.3831 15.0153 29.9876C15.0153 39.4074 19.3503 47.8071 26.1452 53.312C21.3752 55.5169 16.9803 58.5618 13.1703 62.3717C4.95035 70.5765 0.300373 81.4061 0.000375088 92.9708C-0.00362846 93.1309 0.0244518 93.2902 0.082962 93.4392C0.141472 93.5883 0.229228 93.7241 0.341059 93.8388C0.45289 93.9534 0.586534 94.0445 0.734114 94.1066C0.881694 94.1688 1.04023 94.2008 1.20037 94.2008H9.61532C10.2603 94.2008 10.8003 93.6908 10.8153 93.0458C11.1003 84.346 14.6253 76.2013 20.8202 70.0215C25.2302 65.6116 30.6302 62.5517 36.5251 61.0667C37.1101 60.9167 37.5001 60.3618 37.4251 59.7618Z" fill="#0DC7FA" fill-opacity="0.8"/>
<path d="M37.4251 59.7618C37.2901 58.4568 37.2151 57.1368 37.2151 55.8019C37.2151 53.417 37.4401 51.092 37.8601 48.8271C37.9651 48.2871 37.6801 47.7321 37.1851 47.5071C35.1452 46.5922 33.2702 45.3322 31.6502 43.7422C29.7413 41.8914 28.2392 39.663 27.2397 37.1992C26.2402 34.7354 25.7653 32.0903 25.8452 29.4327C25.9802 24.6178 27.9152 20.0429 31.2902 16.593C34.9952 12.7981 39.9751 10.7282 45.2701 10.7882C50.0551 10.8332 54.675 12.6781 58.17 15.9481C59.355 17.058 60.375 18.288 61.23 19.6079C61.53 20.0729 62.115 20.2679 62.625 20.0879C65.265 19.173 68.0549 18.528 70.9199 18.228C71.7599 18.138 72.2399 17.238 71.8649 16.488C66.99 6.84332 57.03 0.183514 45.5101 0.00351946C28.8752 -0.251473 15.0153 13.3831 15.0153 29.9876C15.0153 39.4074 19.3503 47.8071 26.1452 53.312C21.3752 55.5169 16.9803 58.5618 13.1703 62.3717C4.95035 70.5765 0.300373 81.4061 0.000375088 92.9708C-0.00362846 93.1309 0.0244518 93.2902 0.082962 93.4392C0.141472 93.5883 0.229228 93.7241 0.341059 93.8388C0.45289 93.9534 0.586534 94.0445 0.734114 94.1066C0.881694 94.1688 1.04023 94.2008 1.20037 94.2008H9.61532C10.2603 94.2008 10.8003 93.6908 10.8153 93.0458C11.1003 84.346 14.6253 76.2013 20.8202 70.0215C25.2302 65.6116 30.6302 62.5517 36.5251 61.0667C37.1101 60.9167 37.5001 60.3618 37.4251 59.7618Z" fill="#61D90C" fill-opacity="0.2"/>
<path fill-rule="evenodd" clip-rule="evenodd" d="M106.83 88.1859C103.075 84.4285 98.6882 81.3617 93.8698 79.1262C100.665 73.6214 105 65.2216 105 55.8019C105 39.1824 91.1398 25.5478 74.5199 25.8028C58.155 26.0578 44.9701 39.3924 44.9701 55.8019C44.9701 65.2216 49.3201 73.6214 56.1 79.1262C51.2807 81.3601 46.8934 84.4271 43.1401 88.1859C34.9502 96.3907 30.3002 107.22 30.0002 118.77C29.9962 118.93 30.0243 119.089 30.0828 119.238C30.1413 119.388 30.229 119.523 30.3409 119.638C30.4527 119.753 30.5863 119.844 30.7339 119.906C30.8815 119.968 31.04 120 31.2002 120H39.6001C40.2451 120 40.7851 119.49 40.8001 118.845C41.0851 110.145 44.6101 102.001 50.8051 95.8207C53.9751 92.6339 57.7458 90.1074 61.8989 88.3875C66.0519 86.6676 70.5048 85.7885 74.9999 85.801C84.1348 85.801 92.7298 89.3559 99.1948 95.8207C105.375 102.001 108.9 110.145 109.2 118.845C109.215 119.49 109.755 120 110.4 120H118.8C118.96 120 119.118 119.968 119.266 119.906C119.413 119.844 119.547 119.753 119.659 119.638C119.771 119.523 119.859 119.388 119.917 119.238C119.976 119.089 120.004 118.93 120 118.77C119.7 107.22 115.05 96.3907 106.83 88.1859ZM61.425 69.3765C65.04 73.0064 69.8699 75.0013 74.9999 75.0013C77.5245 75.0087 80.0255 74.5153 82.3582 73.5498C84.6909 72.5843 86.8089 71.1659 88.5898 69.3765C92.2198 65.7466 94.2148 60.9317 94.2148 55.8019C94.2148 50.612 92.1748 45.7372 88.4548 42.0923C84.8248 38.5374 79.8899 36.5574 74.8049 36.6024C69.6599 36.6624 64.845 38.7174 61.245 42.4073C57.81 45.9322 55.845 50.687 55.8 55.6069C55.7649 58.1622 56.2449 60.6983 57.2113 63.0641C58.1777 65.4298 59.6108 67.5766 61.425 69.3765Z" fill="#0DC7FA" fill-opacity="0.8"/>
<path fill-rule="evenodd" clip-rule="evenodd" d="M106.83 88.1859C103.075 84.4285 98.6882 81.3617 93.8698 79.1262C100.665 73.6214 105 65.2216 105 55.8019C105 39.1824 91.1398 25.5478 74.5199 25.8028C58.155 26.0578 44.9701 39.3924 44.9701 55.8019C44.9701 65.2216 49.3201 73.6214 56.1 79.1262C51.2807 81.3601 46.8934 84.4271 43.1401 88.1859C34.9502 96.3907 30.3002 107.22 30.0002 118.77C29.9962 118.93 30.0243 119.089 30.0828 119.238C30.1413 119.388 30.229 119.523 30.3409 119.638C30.4527 119.753 30.5863 119.844 30.7339 119.906C30.8815 119.968 31.04 120 31.2002 120H39.6001C40.2451 120 40.7851 119.49 40.8001 118.845C41.0851 110.145 44.6101 102.001 50.8051 95.8207C53.9751 92.6339 57.7458 90.1074 61.8989 88.3875C66.0519 86.6676 70.5048 85.7885 74.9999 85.801C84.1348 85.801 92.7298 89.3559 99.1948 95.8207C105.375 102.001 108.9 110.145 109.2 118.845C109.215 119.49 109.755 120 110.4 120H118.8C118.96 120 119.118 119.968 119.266 119.906C119.413 119.844 119.547 119.753 119.659 119.638C119.771 119.523 119.859 119.388 119.917 119.238C119.976 119.089 120.004 118.93 120 118.77C119.7 107.22 115.05 96.3907 106.83 88.1859ZM61.425 69.3765C65.04 73.0064 69.8699 75.0013 74.9999 75.0013C77.5245 75.0087 80.0255 74.5153 82.3582 73.5498C84.6909 72.5843 86.8089 71.1659 88.5898 69.3765C92.2198 65.7466 94.2148 60.9317 94.2148 55.8019C94.2148 50.612 92.1748 45.7372 88.4548 42.0923C84.8248 38.5374 79.8899 36.5574 74.8049 36.6024C69.6599 36.6624 64.845 38.7174 61.245 42.4073C57.81 45.9322 55.845 50.687 55.8 55.6069C55.7649 58.1622 56.2449 60.6983 57.2113 63.0641C58.1777 65.4298 59.6108 67.5766 61.425 69.3765Z" fill="#61D90C"/>
</svg>
