<svg width="28" height="28" viewBox="0 0 28 28" fill="none" xmlns="http://www.w3.org/2000/svg">
<path d="M6.65 14C6.50396 13.9998 6.35948 14.03 6.22579 14.0888C6.0921 14.1476 5.97215 14.2337 5.8736 14.3414C5.77505 14.4492 5.70006 14.5764 5.65343 14.7148C5.6068 14.8532 5.58956 14.9998 5.6028 15.1452C5.9948 19.4488 9.1728 23.1 14 23.1C18.8272 23.1 22.0038 19.4488 22.3972 15.1452C22.4104 14.9998 22.3932 14.8532 22.3466 14.7148C22.2999 14.5764 22.225 14.4492 22.1264 14.3414C22.0278 14.2337 21.9079 14.1476 21.7742 14.0888C21.6405 14.03 21.496 13.9998 21.35 14H6.6486H6.65ZM14 21C10.8402 21 8.5806 18.928 7.8848 16.1H20.1152C19.4208 18.928 17.1612 21 14 21ZM18.55 9.45C17.9788 9.45 17.556 9.8518 17.4888 10.304C17.448 10.5795 17.2993 10.8275 17.0756 10.9934C16.852 11.1594 16.5715 11.2296 16.296 11.1888C16.0205 11.148 15.7725 10.9993 15.6066 10.7756C15.4406 10.552 15.3704 10.2715 15.4112 9.996C15.638 8.47 16.9834 7.35 18.55 7.35C20.1166 7.35 21.462 8.47 21.6888 9.996C21.7296 10.2715 21.6594 10.552 21.4934 10.7756C21.3275 10.9993 21.0795 11.148 20.804 11.1888C20.5285 11.2296 20.248 11.1594 20.0244 10.9934C19.8007 10.8275 19.652 10.5795 19.6112 10.304C19.544 9.8518 19.1212 9.45 18.55 9.45ZM8.3888 10.304C8.456 9.8518 8.8788 9.45 9.45 9.45C10.0226 9.45 10.444 9.8518 10.5112 10.304C10.552 10.5795 10.7007 10.8275 10.9244 10.9934C11.148 11.1594 11.4285 11.2296 11.704 11.1888C11.9795 11.148 12.2275 10.9993 12.3934 10.7756C12.5594 10.552 12.6296 10.2715 12.5888 9.996C12.3634 8.47 11.0166 7.35 9.45 7.35C7.8834 7.35 6.538 8.47 6.3112 9.996C6.27036 10.2715 6.34063 10.552 6.50656 10.7756C6.67249 10.9993 6.92049 11.148 7.196 11.1888C7.47151 11.2296 7.75195 11.1594 7.97565 10.9934C8.19934 10.8275 8.34796 10.5795 8.3888 10.304ZM14 0C6.2678 0 0 6.2678 0 14C0 21.7322 6.2678 28 14 28C21.7322 28 28 21.7322 28 14C28 6.2678 21.7322 0 14 0ZM2.1 14C2.1 10.8439 3.35375 7.81711 5.58543 5.58543C7.81711 3.35375 10.8439 2.1 14 2.1C17.1561 2.1 20.1829 3.35375 22.4146 5.58543C24.6463 7.81711 25.9 10.8439 25.9 14C25.9 17.1561 24.6463 20.1829 22.4146 22.4146C20.1829 24.6463 17.1561 25.9 14 25.9C10.8439 25.9 7.81711 24.6463 5.58543 22.4146C3.35375 20.1829 2.1 17.1561 2.1 14Z" fill="#F2F2F2"/>
</svg>
