<svg width="28" height="28" viewBox="0 0 28 28" fill="none" xmlns="http://www.w3.org/2000/svg">
<path d="M25.2155 0.558565C24.5967 -0.186188 23.5138 -0.186188 22.7403 0.558565L19.0276 5.02708C17.3936 4.29704 15.6656 3.91889 13.9227 3.90996C8.0442 4.09614 2.78453 7.81991 0 13.9641C0.309392 14.7089 0.773481 15.4536 1.23757 16.1984C2.47514 18.2465 4.0221 19.9222 5.72376 21.2255L3.09392 24.3907C2.47514 25.1354 2.32044 26.4387 3.09392 27.3697C3.71271 28.1144 4.79558 28.3006 5.56906 27.3697L25.2155 3.53758C25.8343 2.60664 25.8343 1.30332 25.2155 0.558565ZM8.81768 17.3155L6.80663 19.736C4.95028 18.4326 3.24862 16.5708 2.01105 14.3365C3.8674 11.1713 6.34254 8.93704 9.28177 7.81991C7.27072 10.4265 7.11602 14.5227 8.81768 17.3155ZM14.0773 11.1713C13.3039 10.2404 13.4586 8.75085 14.232 7.81991C15.0055 7.07516 16.0884 7.07516 16.8619 7.81991L14.0773 11.1713ZM26.7624 12.1022C25.9889 10.7989 25.0608 9.49561 23.9779 8.56466L22.4309 10.4265C23.6685 11.5437 24.7514 12.847 25.6796 14.5227C23.0497 19.3636 18.5635 22.3426 13.768 22.3426H12.5304L10.9834 24.2045C12.0663 24.0183 12.9945 24.2045 13.9227 24.2045C19.0276 24.2045 23.8232 21.2255 26.7624 16.1984C27.2265 15.4536 27.5359 14.7089 28 13.9641C27.5359 13.4056 27.2265 12.6608 26.7624 12.1022ZM20.1105 13.0332L13.9227 20.4807C17.326 20.4807 20.1105 17.1293 20.1105 13.0332Z" fill="#61D90C" fill-opacity="0.8"/>
</svg>
