<svg width="28" height="28" viewBox="0 0 28 28" fill="none" xmlns="http://www.w3.org/2000/svg">
<path d="M3.02703 0H16.6486C17.4515 0 18.2214 0.294999 18.7891 0.820101C19.3568 1.3452 19.6757 2.05739 19.6757 2.8V5.6H16.6486V2.8H3.02703V25.2H16.6486V22.4H19.6757V25.2C19.6757 25.9426 19.3568 26.6548 18.7891 27.1799C18.2214 27.705 17.4515 28 16.6486 28H3.02703C2.22421 28 1.45427 27.705 0.886596 27.1799C0.318918 26.6548 0 25.9426 0 25.2V2.8C0 2.05739 0.318918 1.3452 0.886596 0.820101C1.45427 0.294999 2.22421 0 3.02703 0Z" fill="#D95323"/>
<path d="M18.2982 19.026L20.4322 21L27.9998 14L20.4322 7L18.2982 8.974L22.2031 12.6H7.56738V15.4H22.2031L18.2982 19.026Z" fill="#D95323"/>
</svg>
