<?xml version="1.0" encoding="utf-8"?>
<!-- Generator: Adobe Illustrator 16.0.3, SVG Export Plug-In . SVG Version: 6.00 Build 0)  -->
<!DOCTYPE svg PUBLIC "-//W3C//DTD SVG 1.1//EN" "http://www.w3.org/Graphics/SVG/1.1/DTD/svg11.dtd">
<svg version="1.1" id="Capa_1" xmlns="http://www.w3.org/2000/svg" xmlns:xlink="http://www.w3.org/1999/xlink" x="0px" y="0px"
	 width="595.28px" height="595.28px" viewBox="0 0 595.28 595.28" enable-background="new 0 0 595.28 595.28" xml:space="preserve">
<g>
	<path fill-rule="evenodd" clip-rule="evenodd" fill="#61D90C" d="M261.686,1.402c24.294,0,48.588,0,72.881,0
		c0.693,0.639,1.339,1.773,2.087,1.844c39.039,3.74,75.094,16.728,109.018,35.74c51.002,28.584,89.993,69.331,116.968,120.781
		c29.112,55.527,37.587,114.974,30.39,177.155c-3.864,33.373-13.764,64.793-28.682,94.382c-18.22,36.14-42.715,67.734-74.449,93.665
		c-23.822,19.468-49.383,35.779-77.765,47.429c-49.752,20.426-101.51,25.074-154.706,19.078
		c-33.081-3.728-64.192-13.826-93.598-28.483c-42.116-20.994-77.63-50.538-105.497-88.618
		c-21.501-29.378-37.15-61.551-46.996-96.813c-4.056-14.52-5.148-29.557-9.935-43.809c0-24.235,0-48.468,0-72.703
		c0.64-0.691,1.79-1.345,1.847-2.081c2.6-33.894,13.655-65.495,28.609-95.468c20.979-42.05,50.643-77.487,88.832-105.283
		c29.743-21.646,62.303-37.392,98.05-47.167C232.985,7.157,247.751,6.214,261.686,1.402z M504.273,313.679
		c-0.229,0-0.456,0-0.686-0.002c0-31.84,2.167-63.86-0.504-95.476c-4.087-48.378-29.928-83.803-75.125-102.267
		c-44.589-18.214-86.361-10.056-123.247,20.792c-5.758,4.814-8.668,3.658-13.692-0.603c-28.58-24.22-61.756-34.226-98.645-27.276
		c-59.592,11.223-99.365,59.83-100.316,121.56c-0.548,35.647-0.565,71.317-0.008,106.962
		c1.432,91.783,63.806,169.419,149.619,186.256c29.155,5.722,58.787,2.932,88.231,3.108c3.96,0.024,7.238-1.832,10.059-4.719
		c7.022-7.188,14.131-14.299,21.334-21.311c6.425-6.253,6.861-12.286,0.185-18.697c-6.75-6.483-13.475-13.01-19.827-19.871
		c-4.347-4.697-9.198-6.555-15.611-6.408c-15.609,0.355-31.248-0.359-46.843,0.194c-68.247,2.422-113.583-56.546-115.601-111.061
		c-1.471-39.756-0.769-79.614-0.125-119.414c0.435-26.887,22.492-47.378,49.209-47.415c28.646-0.041,49.198,20.351,49.628,49.944
		c0.381,26.303-0.141,52.619,0.203,78.922c0.303,23.071,16.443,38.804,37.87,37.662c19.198-1.022,33.146-16.614,33.378-38.007
		c0.295-26.997,0.059-54,0.272-81c0.121-15.512,6.564-28.285,18.951-37.504c16.091-11.977,34.036-13.938,51.948-5.261
		c18.37,8.899,27.867,24.628,27.947,45.079c0.23,58.502,0.164,117.004,0.028,175.505c-0.037,14.917,4.632,27.313,17.765,35.263
		c23.974,14.516,52.943-2.33,53.474-31.493C504.714,375.996,504.273,344.834,504.273,313.679z"/>
</g>
</svg>
