<svg version="1.1" id="Layer_1" xmlns="http://www.w3.org/2000/svg" xmlns:xlink="http://www.w3.org/1999/xlink" x="0px" y="0px"
	 width="100%" viewBox="0 0 285 285" enable-background="new 0 0 285 285" xml:space="preserve">
<path fill="#61DA0C" opacity="1.000000" stroke="none" 
	d="
M191.000000,286.000000 
	C127.361046,286.000000 64.222092,286.000000 1.041566,286.000000 
	C1.041566,191.069397 1.041566,96.138779 1.041566,1.104079 
	C95.888832,1.104079 190.777817,1.104079 285.833405,1.104079 
	C285.833405,95.999756 285.833405,190.999863 285.833405,286.000000 
	C254.472290,286.000000 222.986145,286.000000 191.000000,286.000000 
M171.042435,229.500381 
	C169.628799,228.086868 168.021286,226.818024 166.838165,225.232513 
	C163.408234,220.635910 158.963272,219.273163 153.335892,219.672241 
	C147.035828,220.119019 140.673004,219.584717 134.349030,219.806702 
	C101.551338,220.957901 79.835281,192.496704 78.889236,166.299316 
	C78.198158,147.162399 78.517105,127.976524 78.835617,108.819954 
	C79.050751,95.880646 89.659035,86.043076 102.498848,86.033478 
	C115.854256,86.023491 125.952034,95.622231 126.239952,109.106468 
	C126.517334,122.097404 126.217209,135.099747 126.396011,148.093979 
	C126.551384,159.386032 134.597168,167.012573 145.097321,166.172943 
	C154.043549,165.457565 160.507141,157.985550 160.614166,147.896393 
	C160.751984,134.901291 160.641129,121.903709 160.743866,108.908028 
	C160.802887,101.441063 163.897522,95.293053 169.845001,90.855438 
	C177.571091,85.090767 186.188904,84.146904 194.789383,88.321068 
	C203.610168,92.602165 208.174103,100.172653 208.213089,110.016106 
	C208.324585,138.175293 208.293991,166.335312 208.226028,194.494797 
	C208.208710,201.671875 210.439438,207.643280 216.735428,211.480835 
	C228.227737,218.485672 242.197281,210.388184 242.436798,196.364624 
	C242.718460,179.873489 242.558548,163.373871 242.504349,146.878220 
	C242.458908,133.051804 243.031494,119.172081 242.034271,105.409889 
	C239.253693,67.036781 200.596619,42.139172 164.597305,55.526447 
	C156.982925,58.358051 150.216293,63.469231 142.571503,67.806717 
	C141.963684,67.294228 140.729507,66.206642 139.446945,65.179443 
	C125.568741,54.064327 109.829170,49.356976 92.304970,52.808510 
	C63.757790,58.431107 44.874310,81.861633 44.522171,111.647270 
	C44.321266,128.640625 44.285103,145.641235 44.528278,162.633499 
	C45.112373,203.447968 70.795769,238.791138 108.006119,250.411057 
	C120.470642,254.303421 133.347397,253.364471 146.109680,254.230453 
	C156.835892,254.958237 164.881302,252.158218 171.751251,243.708664 
	C177.402557,236.757935 177.970856,236.462326 171.042435,229.500381 
z"/>
<path fill="#FCFEFB" opacity="1.000000" stroke="none" 
	d="
M171.296341,229.755035 
	C177.970856,236.462326 177.402557,236.757935 171.751251,243.708664 
	C164.881302,252.158218 156.835892,254.958237 146.109680,254.230453 
	C133.347397,253.364471 120.470642,254.303421 108.006119,250.411057 
	C70.795769,238.791138 45.112373,203.447968 44.528278,162.633499 
	C44.285103,145.641235 44.321266,128.640625 44.522171,111.647270 
	C44.874310,81.861633 63.757790,58.431107 92.304970,52.808510 
	C109.829170,49.356976 125.568741,54.064327 139.446945,65.179443 
	C140.729507,66.206642 141.963684,67.294228 142.571503,67.806717 
	C150.216293,63.469231 156.982925,58.358051 164.597305,55.526447 
	C200.596619,42.139172 239.253693,67.036781 242.034271,105.409889 
	C243.031494,119.172081 242.458908,133.051804 242.504349,146.878220 
	C242.558548,163.373871 242.718460,179.873489 242.436798,196.364624 
	C242.197281,210.388184 228.227737,218.485672 216.735428,211.480835 
	C210.439438,207.643280 208.208710,201.671875 208.226028,194.494797 
	C208.293991,166.335312 208.324585,138.175293 208.213089,110.016106 
	C208.174103,100.172653 203.610168,92.602165 194.789383,88.321068 
	C186.188904,84.146904 177.571091,85.090767 169.845001,90.855438 
	C163.897522,95.293053 160.802887,101.441063 160.743866,108.908028 
	C160.641129,121.903709 160.751984,134.901291 160.614166,147.896393 
	C160.507141,157.985550 154.043549,165.457565 145.097321,166.172943 
	C134.597168,167.012573 126.551384,159.386032 126.396011,148.093979 
	C126.217209,135.099747 126.517334,122.097404 126.239952,109.106468 
	C125.952034,95.622231 115.854256,86.023491 102.498848,86.033478 
	C89.659035,86.043076 79.050751,95.880646 78.835617,108.819954 
	C78.517105,127.976524 78.198158,147.162399 78.889236,166.299316 
	C79.835281,192.496704 101.551338,220.957901 134.349030,219.806702 
	C140.673004,219.584717 147.035828,220.119019 153.335892,219.672241 
	C158.963272,219.273163 163.408234,220.635910 166.838165,225.232513 
	C168.021286,226.818024 169.628799,228.086868 171.296341,229.755035 
z"/>
</svg>