<svg width="80" height="80" viewBox="0 0 80 80" fill="none" xmlns="http://www.w3.org/2000/svg">
<path d="M21.6663 0C19.4562 0 17.3366 0.82455 15.7738 2.29226C14.211 3.75997 13.333 5.7506 13.333 7.82626L13.333 39.1313C13.333 41.2069 14.211 43.1976 15.7738 44.6653C17.3366 46.133 19.4562 46.9575 21.6663 46.9575H32.083C32.7299 46.9575 33.3678 47.099 33.9464 47.3707C34.525 47.6423 35.0282 48.0368 35.4163 48.5228L43.333 58.4347C43.7211 58.9207 44.2244 59.3152 44.8029 59.5869C45.3815 59.8586 46.0195 60 46.6663 60C47.3132 60 47.9512 59.8586 48.5297 59.5869C49.1083 59.3152 49.6116 58.9207 49.9997 58.4347L57.9163 48.5228C58.3045 48.0368 58.8077 47.6423 59.3863 47.3707C59.9649 47.099 60.6028 46.9575 61.2497 46.9575H71.6663C73.8765 46.9575 75.9961 46.133 77.5589 44.6653C79.1217 43.1976 79.9997 41.2069 79.9997 39.1313V7.82626C79.9997 5.7506 79.1217 3.75997 77.5589 2.29226C75.9961 0.82455 73.8765 0 71.6663 0L21.6663 0Z" fill="#61D90C"/>
<path d="M2.80177 16.2262C4.27261 14.6914 6.26284 13.8333 8.33333 13.8333H58.3333C60.4038 13.8333 62.3941 14.6914 63.8649 16.2262C65.3364 17.7618 66.1667 19.8488 66.1667 22.0292V56.8125C66.1667 58.9929 65.3364 61.0799 63.8649 62.6155C62.3941 64.1503 60.4038 65.0084 58.3333 65.0084H47.9167C47.1885 65.0084 46.4713 65.1853 45.822 65.5241C45.1728 65.8628 44.6102 66.3535 44.1773 66.9557C44.1773 66.9557 44.1773 66.9557 44.1773 66.9557L36.2607 77.969L36.6667 78.2608L36.2607 77.969C35.9172 78.4468 35.4734 78.8326 34.9654 79.0977C34.4576 79.3626 33.8989 79.5 33.3333 79.5C32.7678 79.5 32.209 79.3626 31.7012 79.0977C31.1933 78.8326 30.7494 78.4468 30.406 77.969L30 78.2608L30.406 77.969L22.4893 66.9557C22.4893 66.9557 22.4893 66.9557 22.4893 66.9557C22.0565 66.3535 21.4939 65.8628 20.8447 65.5241C20.1954 65.1853 19.4781 65.0084 18.75 65.0084H8.33333C6.26284 65.0084 4.27261 64.1503 2.80177 62.6155C1.33024 61.0799 0.5 58.9929 0.5 56.8125V22.0292C0.5 19.8488 1.33024 17.7618 2.80177 16.2262Z" fill="#61D90C" stroke="black"/>
<path fill-rule="evenodd" clip-rule="evenodd" d="M31.2721 21.6667C32.6352 21.6667 33.9984 21.6667 35.3616 21.6667C35.4004 21.7026 35.4367 21.7664 35.4787 21.7704C37.6692 21.9808 39.6923 22.7115 41.5959 23.7811C44.4577 25.3892 46.6456 27.6816 48.1592 30.5761C49.7927 33.6999 50.2683 37.0443 49.8644 40.5425C49.6476 42.4201 49.0921 44.1877 48.255 45.8523C47.2327 47.8855 45.8582 49.663 44.0775 51.1218C42.7408 52.217 41.3066 53.1347 39.714 53.7901C36.9223 54.9392 34.0181 55.2007 31.0331 54.8634C29.1769 54.6536 27.4312 54.0855 25.7812 53.261C23.4179 52.0799 21.4252 50.4178 19.8615 48.2754C18.655 46.6227 17.7769 44.8127 17.2245 42.8289C16.9969 42.012 16.9356 41.1661 16.667 40.3643C16.667 39.0008 16.667 37.6375 16.667 36.2741C16.7029 36.2352 16.7674 36.1984 16.7706 36.157C16.9165 34.2502 17.5368 32.4724 18.3759 30.7861C19.5531 28.4205 21.2176 26.4268 23.3605 24.8631C25.0294 23.6453 26.8564 22.7595 28.8623 22.2095C29.6616 21.9905 30.4901 21.9374 31.2721 21.6667ZM44.8841 39.2349C44.8713 39.2349 44.8585 39.2349 44.8456 39.2348C44.8456 37.4435 44.9672 35.6421 44.8173 33.8635C44.588 31.1418 43.138 29.1488 40.6019 28.1101C38.0999 27.0854 35.756 27.5444 33.6863 29.2798C33.3632 29.5506 33.1999 29.4856 32.918 29.2459C31.3143 27.8833 29.4527 27.3204 27.3828 27.7114C24.039 28.3428 21.8072 31.0773 21.7539 34.5502C21.7231 36.5556 21.7222 38.5624 21.7534 40.5677C21.8338 45.7313 25.3337 50.099 30.1489 51.0462C31.7848 51.3681 33.4475 51.2111 35.0997 51.221C35.3219 51.2224 35.5058 51.118 35.6641 50.9555C36.0581 50.5512 36.457 50.1511 36.8612 49.7566C37.2217 49.4048 37.2462 49.0654 36.8716 48.7048C36.4928 48.34 36.1155 47.9728 35.7591 47.5868C35.5151 47.3226 35.2429 47.2181 34.8831 47.2263C34.0072 47.2463 33.1297 47.2061 32.2546 47.2373C28.4252 47.3735 25.8813 44.0561 25.768 40.9891C25.6855 38.7525 25.7249 36.5102 25.761 34.2711C25.7854 32.7584 27.0231 31.6057 28.5222 31.6036C30.1296 31.6013 31.2828 32.7485 31.307 34.4133C31.3283 35.8931 31.299 37.3736 31.3183 38.8534C31.3353 40.1513 32.241 41.0364 33.4433 40.9722C34.5205 40.9147 35.3032 40.0375 35.3162 38.834C35.3328 37.3152 35.3195 35.796 35.3315 34.277C35.3383 33.4044 35.6998 32.6858 36.3949 32.1671C37.2978 31.4933 38.3047 31.383 39.3098 31.8711C40.3405 32.3718 40.8734 33.2567 40.8779 34.4072C40.8908 37.6985 40.8871 40.9897 40.8795 44.2809C40.8774 45.1201 41.1394 45.8175 41.8763 46.2647C43.2216 47.0814 44.8471 46.1336 44.8769 44.493C44.9088 42.7408 44.8841 40.9877 44.8841 39.2349Z" fill="#181818"/>
</svg>
