<?xml version="1.0" encoding="utf-8"?>
<!-- Generator: Adobe Illustrator 16.0.3, SVG Export Plug-In . SVG Version: 6.00 Build 0)  -->
<!DOCTYPE svg PUBLIC "-//W3C//DTD SVG 1.1//EN" "http://www.w3.org/Graphics/SVG/1.1/DTD/svg11.dtd">
<svg version="1.1" id="Capa_1" xmlns="http://www.w3.org/2000/svg" xmlns:xlink="http://www.w3.org/1999/xlink" x="0px" y="0px"
	 width="595.28px" height="595.28px" viewBox="0 0 595.28 595.28" enable-background="new 0 0 595.28 595.28" xml:space="preserve">
<g>
	<path fill-rule="evenodd" clip-rule="evenodd" fill="#61B524" d="M277.788,27.531c13.455,0,26.911,0,40.366,0
	c0.312,0.829,1.035,0.489,1.591,0.524c18.737,1.178,37.227,4.008,55.459,8.457c15.605,3.808,30.83,8.792,45.687,14.927
	c15.979,6.598,31.268,14.52,45.937,23.634c8.286,5.148,16.256,10.786,23.982,16.733c8.636,6.648,16.889,13.79,24.648,21.435
	c6.306,6.213,12.359,12.715,18.147,19.415c6.807,7.878,13.055,16.236,18.858,24.88c4.237,6.313,8.282,12.795,11.869,19.494
	c4.424,8.26,8.394,16.771,12.347,25.274c2.438,5.244,3.848,10.897,6.059,16.262c2.611,6.333,3.991,13.116,5.809,19.715
	c3.517,12.774,4.738,26.002,6.77,39.066c0.237,1.531-0.403,3.183,0.626,4.601c0,11.862,0,23.724,0,35.586
	c-1.298,4.008-1.206,8.246-1.875,12.356c-1.967,12.083-3.239,24.267-7.104,35.985c-1.895,5.739-3.011,11.699-5.417,17.321
	c-2.446,5.715-3.917,11.813-6.856,17.377c-2.201,4.169-3.801,8.626-5.989,12.847c-3.916,7.557-8.046,14.946-12.628,22.118
	c-3.768,5.899-7.726,11.636-11.906,17.254c-5.927,7.962-12.243,15.559-19.001,22.823c-3.831,4.118-7.805,8.069-11.851,11.971
	c-7.791,7.516-16.025,14.478-24.65,21.023c-7.923,6.011-16.112,11.582-24.558,16.828c-11.991,7.446-24.488,13.87-37.396,19.556
	c-13.811,6.083-27.997,11.05-42.541,15.067c-19.389,5.355-39.09,8.809-59.132,10.465c-2.283,0.188-4.707-0.262-6.884,0.895
	c-13.278,0-26.557,0-39.835,0c-2.578-1.057-5.34-0.723-8.01-0.955c-17.908-1.554-35.57-4.51-52.975-8.993
	c-15.98-4.117-31.531-9.464-46.69-16.019c-15.956-6.897-31.174-15.129-45.752-24.558c-8.343-5.396-16.357-11.277-24.098-17.496
	c-8.697-6.985-16.976-14.484-24.729-22.497c-6.279-6.487-12.256-13.29-18.041-20.225c-4.371-5.237-8.423-10.771-12.259-16.416
	c-4.28-6.299-8.436-12.715-12.13-19.367c-4.332-7.801-8.205-15.863-12.092-23.901c-2.558-5.29-4.176-10.976-6.494-16.389
	c-2.662-6.217-4.202-12.88-6.006-19.379c-3.249-11.699-5.467-23.665-7.077-35.726c-0.532-3.984-0.268-8.062-1.434-11.967
	c0-12.039,0-24.078,0-36.118c0.454-0.246,0.49-0.678,0.528-1.126c0.69-8.054,1.218-16.097,3.112-24.033
	c2.08-8.712,2.996-17.672,6.08-26.19c2.325-6.421,3.841-13.091,6.389-19.498c3.725-9.368,7.667-18.578,12.355-27.51
	c3.793-7.227,7.789-14.293,12.233-21.145c3.91-6.03,7.96-11.922,12.343-17.623c4.117-5.356,8.336-10.601,12.816-15.66
	c5.762-6.508,11.807-12.711,18.121-18.688c7.992-7.564,16.421-14.56,25.224-21.153c7.817-5.855,15.914-11.25,24.249-16.336
	c9.926-6.056,20.198-11.404,30.747-16.284c14.019-6.484,28.451-11.786,43.273-16.101c20.671-6.018,41.719-9.879,63.176-11.627
	C273.371,28.266,275.704,28.655,277.788,27.531z M505.535,315.298c0-24.341,0.014-48.683-0.006-73.024
	c-0.01-12.105-0.524-24.138-4.737-35.707c-1.855-5.093-3.392-10.244-5.801-15.188c-5.044-10.35-11.474-19.607-19.155-28.124
	c-4.863-5.392-10.25-10.19-16.021-14.5c-10.492-7.834-21.985-13.886-34.428-18.071c-18.473-6.213-37.394-8.166-56.741-5.926
	c-20.308,2.351-39.085,8.945-56.14,20.328c-4.324,2.887-8.531,5.898-12.346,9.445c-0.959,0.891-1.891,1.777-3.351,0.454
	c-7.335-6.646-15.539-12.018-24.291-16.63c-8.943-4.713-18.322-8.26-28.11-10.622c-22.615-5.459-45.144-5.224-67.606,1.205
	c-19.594,5.608-36.687,15.509-51.495,29.378c-6.802,6.371-12.685,13.64-17.636,21.503c-5.278,8.38-9.481,17.406-12.422,26.879
	c-3.193,10.284-4.284,20.953-4.297,31.703c-0.038,32.485-0.146,64.97,0.046,97.454c0.086,14.47,1.109,28.882,5.728,42.806
	c1.984,5.982,3.177,12.193,6.012,17.935c2.318,4.694,3.945,9.69,6.466,14.354c3.796,7.023,7.766,13.885,12.338,20.441
	c3.768,5.403,7.841,10.513,12.098,15.532c5.827,6.869,12.245,13.076,19.039,18.958c7.599,6.578,15.691,12.422,24.248,17.699
	c11.905,7.344,24.492,13.141,37.722,17.612c15.668,5.296,31.773,8.676,48.277,9.028c22.827,0.489,45.67,0.199,68.506,0.204
	c2.899,0.001,5.52-0.869,7.714-2.937c4.608-4.34,9.131-8.793,13.996-12.827c2.842-2.356,5.341-5.056,8.181-7.415
	c3.03-2.518,6.275-5.206,6.271-9.846c-0.004-4.659-3.433-7.168-6.313-9.861c-6.862-6.418-14.056-12.484-20.869-18.952
	c-3.042-2.888-6.315-4.214-10.434-4.2c-18.411,0.064-36.822,0.009-55.233,0.04c-5.581,0.009-11.14-0.22-16.67-0.989
	c-15.702-2.186-30.167-7.632-43.44-16.317c-4.8-3.141-9.234-6.696-13.608-10.403c-7.834-6.639-14.291-14.454-20.039-22.841
	c-4.807-7.014-8.591-14.688-11.577-22.632c-3.898-10.372-6.113-21.291-6.226-32.317c-0.335-32.747-0.14-65.499-0.1-98.25
	c0.004-3.834-0.077-7.619,0.895-11.488c1.552-6.181,3.126-12.163,6.94-17.482c3.425-4.778,7.304-8.916,12.106-12.315
	c12.084-8.554,25.426-11.033,39.79-8.352c14.819,2.766,26.202,10.776,33.914,23.658c3.962,6.62,5.386,14.247,5.469,21.825
	c0.263,24.073,0.243,48.152,0.038,72.227c-0.105,12.31,4.631,21.813,14.855,28.558c8.664,5.717,18.24,7.516,28.351,5.576
	c11.825-2.269,20.781-8.736,26.169-19.634c2.101-4.249,2.602-8.935,2.59-13.689c-0.054-24.076-0.071-48.152-0.013-72.228
	c0.011-4.538,0.471-8.967,1.818-13.459c2.708-9.031,7.65-16.288,14.779-22.277c4.654-3.909,9.872-6.82,15.58-8.715
	c12.528-4.16,25.033-3.985,37.313,1.069c11.913,4.903,20.499,13.423,25.883,25.012c2.509,5.401,3.344,11.304,3.34,17.316
	c-0.03,53.817-0.001,107.635-0.042,161.452c-0.004,5.502,0.604,10.741,2.865,15.897c3.355,7.653,8.872,13.149,16.11,16.762
	c10.21,5.093,20.959,5.681,31.601,1.455c11.095-4.405,18.706-12.228,21.398-24.188c0.602-2.672,0.717-5.427,0.715-8.182
	C505.528,371.416,505.536,343.356,505.535,315.298z"/>
</g>
</svg>
