<svg width="20" height="20" viewBox="0 0 20 20" fill="none" xmlns="http://www.w3.org/2000/svg">
<path d="M6.23752 9.96029C6.21502 9.7428 6.20252 9.52281 6.20252 9.30031C6.20252 8.90283 6.24002 8.51534 6.31002 8.13785C6.32752 8.04785 6.28002 7.95535 6.19752 7.91786C5.85753 7.76536 5.54503 7.55537 5.27503 7.29037C4.95688 6.9819 4.70653 6.6105 4.53995 6.19986C4.37336 5.78923 4.29421 5.34838 4.30754 4.90544C4.33004 4.10297 4.65253 3.34049 5.21503 2.76551C5.83253 2.13302 6.66252 1.78803 7.54502 1.79803C8.34251 1.80553 9.1125 2.11302 9.695 2.65801C9.8925 2.843 10.0625 3.048 10.205 3.26799C10.255 3.34549 10.3525 3.37799 10.4375 3.34799C10.8775 3.19549 11.3425 3.088 11.82 3.038C11.96 3.023 12.04 2.873 11.9775 2.74801C11.165 1.14055 9.505 0.0305857 7.58501 0.000586576C4.81253 -0.0419122 2.50255 2.23052 2.50255 4.99794C2.50255 6.56789 3.22504 7.96785 4.35753 8.88533C3.56254 9.25282 2.83004 9.7603 2.19505 10.3953C0.825058 11.7627 0.0500622 13.5677 6.25146e-05 15.4951C-0.000604744 15.5218 0.0040753 15.5484 0.013827 15.5732C0.0235787 15.598 0.0382047 15.6207 0.0568432 15.6398C0.0754816 15.6589 0.0977556 15.6741 0.122352 15.6844C0.146949 15.6948 0.173371 15.7001 0.200061 15.7001H1.60255C1.71005 15.7001 1.80005 15.6151 1.80255 15.5076C1.85005 14.0577 2.43755 12.7002 3.47004 11.6702C4.20504 10.9353 5.10503 10.4253 6.08752 10.1778C6.18502 10.1528 6.25002 10.0603 6.23752 9.96029Z" fill="#0DC7FA" fill-opacity="0.8"/>
<path d="M6.23752 9.96029C6.21502 9.7428 6.20252 9.52281 6.20252 9.30031C6.20252 8.90283 6.24002 8.51534 6.31002 8.13785C6.32752 8.04785 6.28002 7.95535 6.19752 7.91786C5.85753 7.76536 5.54503 7.55537 5.27503 7.29037C4.95688 6.9819 4.70653 6.6105 4.53995 6.19986C4.37336 5.78923 4.29421 5.34838 4.30754 4.90544C4.33004 4.10297 4.65253 3.34049 5.21503 2.76551C5.83253 2.13302 6.66252 1.78803 7.54502 1.79803C8.34251 1.80553 9.1125 2.11302 9.695 2.65801C9.8925 2.843 10.0625 3.048 10.205 3.26799C10.255 3.34549 10.3525 3.37799 10.4375 3.34799C10.8775 3.19549 11.3425 3.088 11.82 3.038C11.96 3.023 12.04 2.873 11.9775 2.74801C11.165 1.14055 9.505 0.0305857 7.58501 0.000586576C4.81253 -0.0419122 2.50255 2.23052 2.50255 4.99794C2.50255 6.56789 3.22504 7.96785 4.35753 8.88533C3.56254 9.25282 2.83004 9.7603 2.19505 10.3953C0.825058 11.7627 0.0500622 13.5677 6.25146e-05 15.4951C-0.000604744 15.5218 0.0040753 15.5484 0.013827 15.5732C0.0235787 15.598 0.0382047 15.6207 0.0568432 15.6398C0.0754816 15.6589 0.0977556 15.6741 0.122352 15.6844C0.146949 15.6948 0.173371 15.7001 0.200061 15.7001H1.60255C1.71005 15.7001 1.80005 15.6151 1.80255 15.5076C1.85005 14.0577 2.43755 12.7002 3.47004 11.6702C4.20504 10.9353 5.10503 10.4253 6.08752 10.1778C6.18502 10.1528 6.25002 10.0603 6.23752 9.96029Z" fill="#61D90C" fill-opacity="0.2"/>
<path fill-rule="evenodd" clip-rule="evenodd" d="M17.805 14.6977C17.1792 14.0714 16.448 13.5603 15.645 13.1877C16.7775 12.2702 17.5 10.8703 17.5 9.30031C17.5 6.5304 15.19 4.25796 12.42 4.30046C9.6925 4.34296 7.49502 6.56539 7.49502 9.30031C7.49502 10.8703 8.22001 12.2702 9.35 13.1877C8.54677 13.56 7.81556 14.0712 7.19002 14.6977C5.82503 16.0651 5.05003 17.8701 5.00003 19.795C4.99936 19.8217 5.00404 19.8482 5.0138 19.8731C5.02355 19.8979 5.03817 19.9206 5.05681 19.9397C5.07545 19.9588 5.09772 19.974 5.12232 19.9843C5.14692 19.9947 5.17334 20 5.20003 20H6.60002C6.70752 20 6.79752 19.915 6.80002 19.8075C6.84752 18.3575 7.43502 17.0001 8.46751 15.9701C8.99586 15.439 9.6243 15.0179 10.3165 14.7312C11.0086 14.4446 11.7508 14.2981 12.5 14.3002C14.0225 14.3002 15.455 14.8927 16.5325 15.9701C17.5625 17.0001 18.15 18.3575 18.1999 19.8075C18.2024 19.915 18.2924 20 18.3999 20H19.7999C19.8266 20 19.8531 19.9947 19.8776 19.9843C19.9022 19.974 19.9245 19.9588 19.9432 19.9397C19.9618 19.9206 19.9764 19.8979 19.9862 19.8731C19.9959 19.8482 20.0006 19.8217 19.9999 19.795C19.9499 17.8701 19.1749 16.0651 17.805 14.6977ZM10.2375 11.5627C10.84 12.1677 11.645 12.5002 12.5 12.5002C12.9208 12.5014 13.3376 12.4192 13.7264 12.2583C14.1151 12.0974 14.4682 11.861 14.765 11.5627C15.37 10.9578 15.7025 10.1553 15.7025 9.30031C15.7025 8.43534 15.3625 7.62286 14.7425 7.01538C14.1375 6.4229 13.315 6.09291 12.4675 6.10041C11.61 6.11041 10.8075 6.4529 10.2075 7.06788C9.635 7.65536 9.3075 8.44784 9.3 9.26782C9.29416 9.69369 9.37415 10.1164 9.53522 10.5107C9.69629 10.905 9.93513 11.2628 10.2375 11.5627Z" fill="#0DC7FA" fill-opacity="0.8"/>
<path fill-rule="evenodd" clip-rule="evenodd" d="M17.805 14.6977C17.1792 14.0714 16.448 13.5603 15.645 13.1877C16.7775 12.2702 17.5 10.8703 17.5 9.30031C17.5 6.5304 15.19 4.25796 12.42 4.30046C9.6925 4.34296 7.49502 6.56539 7.49502 9.30031C7.49502 10.8703 8.22001 12.2702 9.35 13.1877C8.54677 13.56 7.81556 14.0712 7.19002 14.6977C5.82503 16.0651 5.05003 17.8701 5.00003 19.795C4.99936 19.8217 5.00404 19.8482 5.0138 19.8731C5.02355 19.8979 5.03817 19.9206 5.05681 19.9397C5.07545 19.9588 5.09772 19.974 5.12232 19.9843C5.14692 19.9947 5.17334 20 5.20003 20H6.60002C6.70752 20 6.79752 19.915 6.80002 19.8075C6.84752 18.3575 7.43502 17.0001 8.46751 15.9701C8.99586 15.439 9.6243 15.0179 10.3165 14.7312C11.0086 14.4446 11.7508 14.2981 12.5 14.3002C14.0225 14.3002 15.455 14.8927 16.5325 15.9701C17.5625 17.0001 18.15 18.3575 18.1999 19.8075C18.2024 19.915 18.2924 20 18.3999 20H19.7999C19.8266 20 19.8531 19.9947 19.8776 19.9843C19.9022 19.974 19.9245 19.9588 19.9432 19.9397C19.9618 19.9206 19.9764 19.8979 19.9862 19.8731C19.9959 19.8482 20.0006 19.8217 19.9999 19.795C19.9499 17.8701 19.1749 16.0651 17.805 14.6977ZM10.2375 11.5627C10.84 12.1677 11.645 12.5002 12.5 12.5002C12.9208 12.5014 13.3376 12.4192 13.7264 12.2583C14.1151 12.0974 14.4682 11.861 14.765 11.5627C15.37 10.9578 15.7025 10.1553 15.7025 9.30031C15.7025 8.43534 15.3625 7.62286 14.7425 7.01538C14.1375 6.4229 13.315 6.09291 12.4675 6.10041C11.61 6.11041 10.8075 6.4529 10.2075 7.06788C9.635 7.65536 9.3075 8.44784 9.3 9.26782C9.29416 9.69369 9.37415 10.1164 9.53522 10.5107C9.69629 10.905 9.93513 11.2628 10.2375 11.5627Z" fill="#61D90C"/>
</svg>
