<svg width="28" height="28" viewBox="0 0 28 28" fill="none" xmlns="http://www.w3.org/2000/svg">
<path d="M23.6251 1.7503C22.9289 1.7503 22.2612 2.02683 21.7689 2.51904C21.2767 3.01126 21.0001 3.67884 21.0001 4.37494C21.0001 5.07103 21.2767 5.73862 21.7689 6.23083C22.2612 6.72305 22.9289 6.99957 23.6251 6.99957C24.3213 6.99957 24.9889 6.72305 25.4812 6.23083C25.9735 5.73862 26.25 5.07103 26.25 4.37494C26.25 3.67884 25.9735 3.01126 25.4812 2.51904C24.9889 2.02683 24.3213 1.7503 23.6251 1.7503ZM19.2501 4.37494C19.25 3.34859 19.6108 2.35487 20.2694 1.56765C20.9281 0.780426 21.8426 0.249826 22.8529 0.0686799C23.8633 -0.112466 24.9052 0.0673785 25.7963 0.576748C26.6875 1.08612 27.3711 1.89258 27.7276 2.85503C28.0842 3.81748 28.0909 4.87463 27.7466 5.84153C27.4023 6.80843 26.729 7.62351 25.8444 8.14416C24.9598 8.66481 23.9203 8.85787 22.9077 8.68957C21.8951 8.52127 20.9739 8.00233 20.3054 7.22354L8.54907 12.6828C8.81934 13.5392 8.81934 14.458 8.54907 15.3144L20.3054 20.7736C21.0121 19.9518 21.9988 19.4216 23.0742 19.2857C24.1496 19.1499 25.2371 19.418 26.1261 20.0382C27.015 20.6584 27.6421 21.5865 27.8857 22.6426C28.1293 23.6987 27.9721 24.8076 27.4445 25.7544C26.917 26.7013 26.0567 27.4186 25.0304 27.7673C24.0041 28.1161 22.8849 28.0715 21.8896 27.6421C20.8943 27.2128 20.0939 26.4293 19.6434 25.4435C19.1929 24.4577 19.1245 23.3398 19.4514 22.3064L7.69509 16.8472C7.11311 17.5253 6.33737 18.009 5.47224 18.2331C4.6071 18.4573 3.69407 18.4111 2.85596 18.1008C2.01785 17.7906 1.29488 17.2311 0.784289 16.4977C0.273703 15.7643 0 14.8922 0 13.9986C0 13.105 0.273703 12.2328 0.784289 11.4994C1.29488 10.766 2.01785 10.2066 2.85596 9.89632C3.69407 9.58607 4.6071 9.5399 5.47224 9.76403C6.33737 9.98816 7.11311 10.4718 7.69509 11.15L19.4514 5.69075C19.3176 5.26498 19.2497 4.82124 19.2501 4.37494V4.37494ZM4.37539 11.374C3.67921 11.374 3.01154 11.6505 2.51927 12.1427C2.02699 12.6349 1.75044 13.3025 1.75044 13.9986C1.75044 14.6947 2.02699 15.3623 2.51927 15.8545C3.01154 16.3467 3.67921 16.6232 4.37539 16.6232C5.07157 16.6232 5.73924 16.3467 6.23152 15.8545C6.72379 15.3623 7.00035 14.6947 7.00035 13.9986C7.00035 13.3025 6.72379 12.6349 6.23152 12.1427C5.73924 11.6505 5.07157 11.374 4.37539 11.374ZM23.6251 20.9976C22.9289 20.9976 22.2612 21.2741 21.7689 21.7663C21.2767 22.2586 21.0001 22.9261 21.0001 23.6222C21.0001 24.3183 21.2767 24.9859 21.7689 25.4781C22.2612 25.9703 22.9289 26.2469 23.6251 26.2469C24.3213 26.2469 24.9889 25.9703 25.4812 25.4781C25.9735 24.9859 26.25 24.3183 26.25 23.6222C26.25 22.9261 25.9735 22.2586 25.4812 21.7663C24.9889 21.2741 24.3213 20.9976 23.6251 20.9976Z" fill="#61D90C"/>
</svg>
