<svg width="28" height="28" viewBox="0 0 28 28" fill="none" xmlns="http://www.w3.org/2000/svg">
<path d="M1.584 3.002L2.998 1.588L6.414 5.002L5 6.417L1.584 3.002ZM21.581 22.992L22.996 21.578L26.41 24.994L24.996 26.408L21.581 22.992ZM9 0H11V4H9V0ZM0 9H4V11H0V9ZM24 17H28V19H24V17ZM17 24H19V28H17V24ZM14.58 19.07L10.87 22.79C10.4984 23.1616 10.0572 23.4564 9.57158 23.6576C9.08601 23.8587 8.56558 23.9622 8.04 23.9622C7.51442 23.9622 6.99399 23.8587 6.50842 23.6576C6.02284 23.4564 5.58164 23.1616 5.21 22.79C4.45944 22.0394 4.03778 21.0215 4.03778 19.96C4.03778 18.8985 4.45944 17.8806 5.21 17.13L8.93 13.41L7.51 12L3.8 15.72C3.23067 16.2741 2.77706 16.9358 2.4655 17.6667C2.15393 18.3975 1.99062 19.183 1.98504 19.9775C1.97946 20.7719 2.13172 21.5596 2.43298 22.2948C2.73424 23.0299 3.17851 23.6979 3.74 24.26C4.30064 24.8161 4.96554 25.256 5.69656 25.5546C6.42759 25.8532 7.21036 26.0046 8 26C8.80336 26.0008 9.59889 25.8421 10.3405 25.5331C11.082 25.2241 11.7549 24.771 12.32 24.2L16 20.49L14.58 19.07ZM13.41 8.93L17.13 5.21C17.5016 4.83836 17.9428 4.54356 18.4284 4.34243C18.914 4.1413 19.4344 4.03778 19.96 4.03778C20.4856 4.03778 21.006 4.1413 21.4916 4.34243C21.9772 4.54356 22.4184 4.83836 22.79 5.21C23.1616 5.58164 23.4564 6.02284 23.6576 6.50842C23.8587 6.99399 23.9622 7.51442 23.9622 8.04C23.9622 8.56558 23.8587 9.08601 23.6576 9.57158C23.4564 10.0572 23.1616 10.4984 22.79 10.87L19.07 14.59L20.49 16L24.2 12.28C24.7693 11.7259 25.2229 11.0642 25.5345 10.3333C25.8461 9.60246 26.0094 8.81701 26.015 8.02254C26.0205 7.22807 25.8683 6.4404 25.567 5.70525C25.2658 4.97009 24.8215 4.30209 24.26 3.74C23.6994 3.18391 23.0345 2.74396 22.3034 2.44537C21.5724 2.14679 20.7896 1.99543 20 2C19.1966 1.99923 18.4011 2.15794 17.6595 2.46692C16.918 2.77591 16.2451 3.22902 15.68 3.8L12 7.51L13.41 8.93Z" fill="black" fill-opacity="0.8"/>
</svg>
