<svg width="28" height="28" viewBox="0 0 28 28" fill="none" xmlns="http://www.w3.org/2000/svg">
<path d="M19.5996 14H22.3996V20.2222H19.5996V14Z" fill="#61D90C" fill-opacity="0.8"/>
<path d="M25.2 6.22222V3.11111C25.2 1.39533 23.9442 0 22.4 0H4.2C1.8844 0 0 2.09378 0 4.66667V23.3333C0 26.7571 2.5116 28 4.2 28H25.2C26.7442 28 28 26.6047 28 24.8889V9.33333C28 7.61756 26.7442 6.22222 25.2 6.22222ZM4.2 3.11111H22.4V6.22222H4.2C3.83953 6.20431 3.49917 6.03259 3.24979 5.74283C3.00041 5.45307 2.86123 5.06759 2.86123 4.66667C2.86123 4.26574 3.00041 3.88027 3.24979 3.59051C3.49917 3.30074 3.83953 3.12903 4.2 3.11111ZM25.2 24.8889H4.2168C3.57 24.8702 2.8 24.5856 2.8 23.3333V9.04556C3.2396 9.22133 3.7058 9.33333 4.2 9.33333H25.2V24.8889Z" fill="#61D90C" fill-opacity="0.8"/>
</svg>
